<svg height="100" width="100" xmlns="http://www.w3.org/2000/svg" viewBox="0 0 50 50"><path d="M25.117 49.455a4.034 4.034 0 0 1-2.85-1.163L1.748 28.05a4.028 4.028 0 0 1-1.203-2.908 4.17 4.17 0 0 1 1.212-2.923l20.145-20.42a4.158 4.158 0 0 1 2.98-1.253c1.077 0 2.089.414 2.851 1.164l20.52 20.242a4.024 4.024 0 0 1 1.203 2.908 4.17 4.17 0 0 1-1.213 2.922l-20.145 20.42a4.16 4.16 0 0 1-2.981 1.253zm-.235-46.91c-.585 0-1.139.233-1.557.657L3.181 23.623a2.184 2.184 0 0 0-.636 1.527 2.044 2.044 0 0 0 .607 1.476l20.52 20.242c.795.784 2.192.75 3.002-.07l20.145-20.42c.408-.414.635-.956.637-1.527a2.042 2.042 0 0 0-.607-1.476L26.328 3.133a2.046 2.046 0 0 0-1.446-.588z"/></svg>